<svg width="121" height="121" viewBox="0 0 121 121" fill="none" xmlns="http://www.w3.org/2000/svg">
<path fill-rule="evenodd" clip-rule="evenodd" d="M69.5058 69.9051L67.5901 72.1756L73.9444 76.5196L87.7645 58.8127L83.0658 55.4937C82.9397 54.9181 82.7978 54.319 82.6401 53.7356C85.91 50.7789 93.6393 42.8304 97.1218 30.9769C105.329 39.9811 110.331 51.9571 110.328 65.1039C110.328 90.1111 92.203 110.869 68.3784 115C73.1954 100.541 59.052 99.5322 59.052 99.5322C59.6275 90.7576 51.9015 87.0364 51.9015 87.0364C51.9015 87.0364 54.2823 84.1746 53.9039 80.5481C53.5255 76.9295 56.001 70.252 56.001 70.252L44.8534 79.5942L51.1446 64.623C51.1446 64.623 48.2828 69.4873 43.3318 69.2035C38.3809 68.9118 35.2195 71.9549 35.2195 71.9549C30.166 62.116 19.5782 67.7686 19.5782 67.7686C17.0869 62.25 11.9468 61.7218 9.13226 61.8874C10.7878 35.4059 32.7755 14.4352 59.6748 14.4352C65.6558 14.4352 71.3947 15.4717 76.7216 17.3748C71.2002 21.07 65.2856 26.9064 60.1163 36.1155H57.9877V35.6346L53.4861 33.0093L39.6896 50.4717L42.9377 53.4991L45.0347 55.4306L46.8559 53.231L46.8632 53.2226C47.0505 53.0063 49.6279 50.0302 53.762 50.0302C54.0695 50.0302 54.377 50.046 54.6923 50.0775C54.4085 51.5045 54.0853 53.4518 53.8488 55.8484L49.765 60.3579L61.6458 69.9603L65.5482 64.5836C66.6125 64.2525 68.4573 63.6139 70.578 62.6048C71.2954 64.4259 71.7448 67.2404 69.5058 69.9051ZM54.8815 28.9176L53.3994 29.1226L53.2969 30.6126L53.0919 29.1384L51.6019 29.0359L53.0761 28.823L53.1865 27.333L53.3915 28.8151L54.8815 28.9176ZM25.0574 56.014L26.4764 55.8169L25.0495 55.7223L24.8524 54.3032L24.7499 55.7302L23.3387 55.9273L24.7657 56.0297L24.9628 57.4409L25.0574 56.014ZM74.8194 90.8916L73.4082 91.0965L73.3057 92.5156L73.1087 91.1044L71.6817 91.0019L73.1008 90.8048L73.1954 89.3779L73.4004 90.797L74.8194 90.8916ZM92.5184 65.4823L93.9295 65.2852L92.5026 65.1828L92.3055 63.7716L92.2109 65.1985L90.7918 65.3956L92.2188 65.4902L92.4159 66.9093L92.5184 65.4823Z" fill="#DE8E2B"/>
<path fill-rule="evenodd" clip-rule="evenodd" d="M61.7088 39.0482C75.6787 12.8269 95.869 13.978 95.869 13.978C98.8332 38.0943 79.5023 53.1206 79.5102 53.1049C80.3696 55.0206 80.9451 59.1359 80.9451 59.1359L82.2853 58.4658L83.9093 59.6168L73.3846 73.1138L71.5634 71.8681C76.6327 65.845 71.658 59.2384 71.658 59.2384C67.6373 61.5405 63.9083 62.4944 63.9083 62.4944L61.1333 66.3259L53.6674 60.2948L56.4425 57.2359C56.9234 51.5912 57.9246 48.3352 57.9246 48.3352C49.8359 45.4656 44.7667 51.7804 44.7667 51.7804L43.3318 50.4402L54.1483 36.754L55.2993 37.4242V39.0482H61.7088ZM86.44 32.4101C86.44 35.2141 84.1669 37.4872 81.3629 37.4872C78.5589 37.4872 76.2858 35.2141 76.2858 32.4101C76.2858 29.6061 78.5589 27.333 81.3629 27.333C84.1669 27.333 86.44 29.6061 86.44 32.4101ZM77.7916 41.8469C77.7916 43.7105 76.2809 45.2212 74.4174 45.2212C72.5538 45.2212 71.0431 43.7105 71.0431 41.8469C71.0431 39.9834 72.5538 38.4727 74.4174 38.4727C76.2809 38.4727 77.7916 39.9834 77.7916 41.8469Z" fill="#62C0B5"/>
<path d="M93.9217 16.2091C88.947 16.7058 74.3464 19.8987 63.6009 40.0573L62.9938 41.2005H53.3678L49.4654 46.1357C50.7268 45.71 52.1616 45.4262 53.7541 45.4262C55.3703 45.4262 57.0101 45.7178 58.642 46.3012L60.5814 46.995L59.9822 48.9659C59.9744 48.9975 59.0362 52.1115 58.5868 57.4173L58.5238 58.1426L56.7893 60.0583L58.5553 61.4853C64.3341 39.6474 75.592 24.014 93.9295 16.3983C93.9295 16.3273 93.9296 16.2721 93.9217 16.2091Z" fill="#FFF3BD"/>
<path d="M81.3629 35.9893C83.3396 35.9893 84.9421 34.3869 84.9421 32.4101C84.9421 30.4334 83.3396 28.8309 81.3629 28.8309C79.3862 28.8309 77.7837 30.4334 77.7837 32.4101C77.7837 34.3869 79.3862 35.9893 81.3629 35.9893Z" fill="#FFF3BD"/>
<path d="M74.4174 44.2278C75.7323 44.2278 76.7982 43.1619 76.7982 41.8469C76.7982 40.532 75.7323 39.466 74.4174 39.466C73.1024 39.466 72.0365 40.532 72.0365 41.8469C72.0365 43.1619 73.1024 44.2278 74.4174 44.2278Z" fill="#FFF3BD"/>
<path d="M55.6935 61.4774L50.6085 72.1993L59.9507 64.3392L55.6935 61.4774Z" fill="#62C0B5"/>
<path d="M78.6115 53.5543C78.6115 53.5543 80.1331 59.2069 79.5181 61.4774L77.3422 64.284C77.3422 64.284 78.1227 57.8272 77.5472 54.7447L78.6115 53.5543Z" fill="#FFF3BD"/>
<path d="M35.188 35.4296L32.5863 35.7922L32.405 38.4175L32.0424 35.8159L29.425 35.6346L32.0266 35.264L32.2079 32.6466L32.5706 35.2483L35.188 35.4296Z" fill="#FFF3BD"/>
<path d="M35.5506 49.4626L34.1315 49.6597L34.0369 51.0867L33.8398 49.6676L32.4129 49.573L33.8241 49.368L33.9265 47.9489L34.1236 49.3601L35.5506 49.4626Z" fill="#FFF3BD"/>
<path d="M92.0217 83.2128L89.0101 83.6386L88.8051 86.6738L88.3794 83.6622L85.3442 83.4493L88.3558 83.0315L88.5686 79.9963L88.9944 83.0078L92.0217 83.2128Z" fill="#FFF3BD"/>
</svg>
